<svg xmlns="http://www.w3.org/2000/svg" xmlns:xlink="http://www.w3.org/1999/xlink" width="1740" zoomAndPan="magnify" viewBox="0 0 1305 784.499977" height="1046" preserveAspectRatio="xMidYMid meet" version="1.0"><defs><clipPath id="fd48dadcc4"><path d="M 475 93 L 735 93 L 735 558 L 475 558 Z M 475 93 " clip-rule="nonzero"/></clipPath><clipPath id="788cc7cf59"><path d="M 432.988281 542.699219 L 616.667969 58.441406 L 787.664062 123.300781 L 603.984375 607.558594 Z M 432.988281 542.699219 " clip-rule="nonzero"/></clipPath><clipPath id="a0ef20c216"><path d="M 432.988281 542.699219 L 616.667969 58.441406 L 787.664062 123.300781 L 603.984375 607.558594 Z M 432.988281 542.699219 " clip-rule="nonzero"/></clipPath><clipPath id="66cdad191a"><path d="M 432.988281 542.699219 L 616.667969 58.441406 L 787.664062 123.300781 L 603.984375 607.558594 Z M 432.988281 542.699219 " clip-rule="nonzero"/></clipPath><clipPath id="cb823953d7"><path d="M 626 527 L 944 527 L 944 655 L 626 655 Z M 626 527 " clip-rule="nonzero"/></clipPath><clipPath id="44f84b0ddf"><path d="M 675.292969 712.515625 L 610.089844 613.660156 L 880.375 435.371094 L 945.582031 534.226562 Z M 675.292969 712.515625 " clip-rule="nonzero"/></clipPath><clipPath id="427ab0d0ea"><path d="M 675.292969 712.515625 L 610.089844 613.660156 L 880.375 435.371094 L 945.582031 534.226562 Z M 675.292969 712.515625 " clip-rule="nonzero"/></clipPath><clipPath id="08af5ec5a3"><path d="M 675.292969 712.515625 L 610.089844 613.660156 L 880.375 435.371094 L 945.582031 534.226562 Z M 675.292969 712.515625 " clip-rule="nonzero"/></clipPath><clipPath id="4431a92106"><path d="M 675.339844 712.484375 L 610.132812 613.628906 L 880.332031 435.402344 L 945.539062 534.257812 Z M 675.339844 712.484375 " clip-rule="nonzero"/></clipPath><clipPath id="151ceb3c34"><path d="M 387 117 L 531 117 L 531 255 L 387 255 Z M 387 117 " clip-rule="nonzero"/></clipPath><clipPath id="2f7a6442e2"><path d="M 348.898438 226.09375 L 446.390625 81.199219 L 572.625 166.140625 L 475.132812 311.035156 Z M 348.898438 226.09375 " clip-rule="nonzero"/></clipPath><clipPath id="a1c3523391"><path d="M 247.535156 376.738281 L 446.703125 80.734375 L 735.246094 274.882812 L 536.074219 570.886719 Z M 247.535156 376.738281 " clip-rule="nonzero"/></clipPath><clipPath id="88748a61c3"><path d="M 879 172 L 1029 172 L 1029 345 L 879 345 Z M 879 172 " clip-rule="nonzero"/></clipPath><clipPath id="0e0bf1bfa4"><path d="M 708.722656 150.257812 L 988.753906 0 L 1141.84375 285.320312 L 861.8125 435.574219 Z M 708.722656 150.257812 " clip-rule="nonzero"/></clipPath><clipPath id="5881e600bf"><path d="M 708.722656 150.257812 L 988.753906 0 L 1141.84375 285.320312 L 861.8125 435.574219 Z M 708.722656 150.257812 " clip-rule="nonzero"/></clipPath><clipPath id="ae4b4aeae0"><path d="M 899 216 L 908 216 L 908 243 L 899 243 Z M 899 216 " clip-rule="nonzero"/></clipPath><clipPath id="ed34861c95"><path d="M 708.722656 150.257812 L 988.753906 0 L 1141.84375 285.320312 L 861.8125 435.574219 Z M 708.722656 150.257812 " clip-rule="nonzero"/></clipPath><clipPath id="af1981c936"><path d="M 708.722656 150.257812 L 988.753906 0 L 1141.84375 285.320312 L 861.8125 435.574219 Z M 708.722656 150.257812 " clip-rule="nonzero"/></clipPath><clipPath id="0e74b7f99f"><path d="M 909 252 L 943 252 L 943 280 L 909 280 Z M 909 252 " clip-rule="nonzero"/></clipPath><clipPath id="fc4214bfb4"><path d="M 708.722656 150.257812 L 988.753906 0 L 1141.84375 285.320312 L 861.8125 435.574219 Z M 708.722656 150.257812 " clip-rule="nonzero"/></clipPath><clipPath id="df11df62b4"><path d="M 708.722656 150.257812 L 988.753906 0 L 1141.84375 285.320312 L 861.8125 435.574219 Z M 708.722656 150.257812 " clip-rule="nonzero"/></clipPath><clipPath id="af6895073f"><path d="M 915 77 L 923 77 L 923 127 L 915 127 Z M 915 77 " clip-rule="nonzero"/></clipPath><clipPath id="c1366af32e"><path d="M 708.722656 150.257812 L 988.753906 0 L 1141.84375 285.320312 L 861.8125 435.574219 Z M 708.722656 150.257812 " clip-rule="nonzero"/></clipPath><clipPath id="6fb4a20e07"><path d="M 708.722656 150.257812 L 988.753906 0 L 1141.84375 285.320312 L 861.8125 435.574219 Z M 708.722656 150.257812 " clip-rule="nonzero"/></clipPath><clipPath id="e086c1f0dd"><path d="M 995 79 L 1027 79 L 1027 128 L 995 128 Z M 995 79 " clip-rule="nonzero"/></clipPath><clipPath id="441b500e7c"><path d="M 708.722656 150.257812 L 988.753906 0 L 1141.84375 285.320312 L 861.8125 435.574219 Z M 708.722656 150.257812 " clip-rule="nonzero"/></clipPath><clipPath id="2568b856f2"><path d="M 708.722656 150.257812 L 988.753906 0 L 1141.84375 285.320312 L 861.8125 435.574219 Z M 708.722656 150.257812 " clip-rule="nonzero"/></clipPath><clipPath id="a7744f87fa"><path d="M 1043 169 L 1081 169 L 1081 182 L 1043 182 Z M 1043 169 " clip-rule="nonzero"/></clipPath><clipPath id="9280a34f9c"><path d="M 708.722656 150.257812 L 988.753906 0 L 1141.84375 285.320312 L 861.8125 435.574219 Z M 708.722656 150.257812 " clip-rule="nonzero"/></clipPath><clipPath id="392fad670d"><path d="M 708.722656 150.257812 L 988.753906 0 L 1141.84375 285.320312 L 861.8125 435.574219 Z M 708.722656 150.257812 " clip-rule="nonzero"/></clipPath><clipPath id="35e9b92fb5"><path d="M 815 93 L 866 93 L 866 136 L 815 136 Z M 815 93 " clip-rule="nonzero"/></clipPath><clipPath id="8a13187790"><path d="M 708.722656 150.257812 L 988.753906 0 L 1141.84375 285.320312 L 861.8125 435.574219 Z M 708.722656 150.257812 " clip-rule="nonzero"/></clipPath><clipPath id="60303c931f"><path d="M 708.722656 150.257812 L 988.753906 0 L 1141.84375 285.320312 L 861.8125 435.574219 Z M 708.722656 150.257812 " clip-rule="nonzero"/></clipPath><clipPath id="73462d96fd"><path d="M 769 214 L 822 214 L 822 225 L 769 225 Z M 769 214 " clip-rule="nonzero"/></clipPath><clipPath id="112a896281"><path d="M 708.722656 150.257812 L 988.753906 0 L 1141.84375 285.320312 L 861.8125 435.574219 Z M 708.722656 150.257812 " clip-rule="nonzero"/></clipPath><clipPath id="4b1c4928b1"><path d="M 708.722656 150.257812 L 988.753906 0 L 1141.84375 285.320312 L 861.8125 435.574219 Z M 708.722656 150.257812 " clip-rule="nonzero"/></clipPath><clipPath id="589d607e77"><path d="M 822 317 L 860 317 L 860 363 L 822 363 Z M 822 317 " clip-rule="nonzero"/></clipPath><clipPath id="113d5a121f"><path d="M 708.722656 150.257812 L 988.753906 0 L 1141.84375 285.320312 L 861.8125 435.574219 Z M 708.722656 150.257812 " clip-rule="nonzero"/></clipPath><clipPath id="28041d1b2f"><path d="M 708.722656 150.257812 L 988.753906 0 L 1141.84375 285.320312 L 861.8125 435.574219 Z M 708.722656 150.257812 " clip-rule="nonzero"/></clipPath><clipPath id="1ce594b2a5"><path d="M 896 346 L 915 346 L 915 399 L 896 399 Z M 896 346 " clip-rule="nonzero"/></clipPath><clipPath id="25737d59f3"><path d="M 708.722656 150.257812 L 988.753906 0 L 1141.84375 285.320312 L 861.8125 435.574219 Z M 708.722656 150.257812 " clip-rule="nonzero"/></clipPath><clipPath id="1c8d3418e5"><path d="M 708.722656 150.257812 L 988.753906 0 L 1141.84375 285.320312 L 861.8125 435.574219 Z M 708.722656 150.257812 " clip-rule="nonzero"/></clipPath><clipPath id="e1b2c87062"><path d="M 953 353 L 965 353 L 965 381 L 953 381 Z M 953 353 " clip-rule="nonzero"/></clipPath><clipPath id="391659ef11"><path d="M 708.722656 150.257812 L 988.753906 0 L 1141.84375 285.320312 L 861.8125 435.574219 Z M 708.722656 150.257812 " clip-rule="nonzero"/></clipPath><clipPath id="968c6f81ab"><path d="M 708.722656 150.257812 L 988.753906 0 L 1141.84375 285.320312 L 861.8125 435.574219 Z M 708.722656 150.257812 " clip-rule="nonzero"/></clipPath><clipPath id="06cfeb8b9f"><path d="M 964 376 L 965 376 L 965 378 L 964 378 Z M 964 376 " clip-rule="nonzero"/></clipPath><clipPath id="95a5c3a389"><path d="M 708.722656 150.257812 L 988.753906 0 L 1141.84375 285.320312 L 861.8125 435.574219 Z M 708.722656 150.257812 " clip-rule="nonzero"/></clipPath><clipPath id="a7609de7b9"><path d="M 708.722656 150.257812 L 988.753906 0 L 1141.84375 285.320312 L 861.8125 435.574219 Z M 708.722656 150.257812 " clip-rule="nonzero"/></clipPath><clipPath id="160050e8cc"><path d="M 1071 245 L 1094 245 L 1094 257 L 1071 257 Z M 1071 245 " clip-rule="nonzero"/></clipPath><clipPath id="73dbccf700"><path d="M 708.722656 150.257812 L 988.753906 0 L 1141.84375 285.320312 L 861.8125 435.574219 Z M 708.722656 150.257812 " clip-rule="nonzero"/></clipPath><clipPath id="4b80ada0b6"><path d="M 708.722656 150.257812 L 988.753906 0 L 1141.84375 285.320312 L 861.8125 435.574219 Z M 708.722656 150.257812 " clip-rule="nonzero"/></clipPath><clipPath id="4eb9c2fa33"><path d="M 85 79 L 293 79 L 293 300 L 85 300 Z M 85 79 " clip-rule="nonzero"/></clipPath><clipPath id="de4aecf9bf"><path d="M 53.875 136.507812 L 251.996094 27.03125 L 360.382812 223.183594 L 162.261719 332.660156 Z M 53.875 136.507812 " clip-rule="nonzero"/></clipPath><clipPath id="e464fcaf03"><path d="M 53.875 136.507812 L 251.996094 27.03125 L 360.382812 223.183594 L 162.261719 332.660156 Z M 53.875 136.507812 " clip-rule="nonzero"/></clipPath><clipPath id="e86553be64"><path d="M 53.875 136.507812 L 251.996094 27.03125 L 360.382812 223.183594 L 162.261719 332.660156 Z M 53.875 136.507812 " clip-rule="nonzero"/></clipPath><clipPath id="fc4a19a4a5"><path d="M 20 426 L 400 426 L 400 723 L 20 723 Z M 20 426 " clip-rule="nonzero"/></clipPath><clipPath id="bfa342b41a"><path d="M 126.070312 386.957031 L 432.757812 557.210938 L 307.246094 783.296875 L 0.558594 613.039062 Z M 126.070312 386.957031 " clip-rule="nonzero"/></clipPath><clipPath id="9050f6bb40"><path d="M 126.070312 386.957031 L 432.757812 557.210938 L 307.246094 783.296875 L 0.558594 613.039062 Z M 126.070312 386.957031 " clip-rule="nonzero"/></clipPath><clipPath id="70885ca732"><path d="M 126.070312 386.957031 L 432.757812 557.210938 L 307.246094 783.296875 L 0.558594 613.039062 Z M 126.070312 386.957031 " clip-rule="nonzero"/></clipPath><clipPath id="118b21dd18"><path d="M 1024 450 L 1168 450 L 1168 587 L 1024 587 Z M 1024 450 " clip-rule="nonzero"/></clipPath><clipPath id="5c79ff883b"><path d="M 986.234375 558.414062 L 1083.726562 413.519531 L 1209.960938 498.460938 L 1112.46875 643.351562 Z M 986.234375 558.414062 " clip-rule="nonzero"/></clipPath><clipPath id="925df318b2"><path d="M 884.871094 709.058594 L 1084.039062 413.054688 L 1372.582031 607.203125 L 1173.410156 903.207031 Z M 884.871094 709.058594 " clip-rule="nonzero"/></clipPath><clipPath id="961e6d2210"><path d="M 1169 48 L 1291 48 L 1291 323 L 1169 323 Z M 1169 48 " clip-rule="nonzero"/></clipPath><clipPath id="52e7dd02c7"><path d="M 1237.753906 37.703125 L 1303.90625 309.335938 L 1207.777344 332.75 L 1141.625 61.117188 Z M 1237.753906 37.703125 " clip-rule="nonzero"/></clipPath><clipPath id="8115d50188"><path d="M 1237.753906 37.703125 L 1303.90625 309.335938 L 1207.777344 332.75 L 1141.625 61.117188 Z M 1237.753906 37.703125 " clip-rule="nonzero"/></clipPath></defs><g clip-path="url(#fd48dadcc4)"><g clip-path="url(#788cc7cf59)"><g clip-path="url(#a0ef20c216)"><g clip-path="url(#66cdad191a)"><path fill="#ffd25e" d="M 621.398438 105.808594 C 591.824219 123.933594 581.636719 156.078125 591.386719 188.449219 C 604.242188 232 637.671875 260.019531 665.753906 293.34375 C 695.871094 330.105469 670.96875 350 636.984375 355.113281 C 614.660156 325.976562 578.714844 306.339844 544.367188 310.648438 C 539.398438 311.433594 534.269531 316.15625 534.472656 320.898438 C 535.714844 363.382812 583.855469 384.308594 629.589844 381.648438 C 639.175781 398.621094 642.542969 417.902344 635.324219 435.171875 C 616.308594 485.304688 563.898438 452.757812 526.554688 457.929688 C 482.191406 465.777344 462.652344 519.046875 485.6875 555.121094 C 489.390625 561.195312 497.960938 554.445312 494.253906 548.371094 C 477.183594 521.222656 491.714844 479.390625 524.53125 473.832031 C 547.40625 469.839844 570.589844 482.636719 593.085938 483.167969 C 622.304688 483.578125 644.933594 466.15625 654.523438 439.117188 C 661.457031 419.078125 659.335938 398.269531 651 379.769531 C 675.121094 374.25 695.398438 361.269531 703.941406 340.503906 C 722.136719 296.058594 674.539062 266.667969 650.460938 236.863281 C 632.425781 214.019531 605.953125 179.972656 618.839844 149.515625 C 634.820312 110.902344 683.878906 118.839844 716.277344 128.460938 C 732.476562 133.273438 741.765625 108.789062 725.566406 103.976562 C 691.054688 92.886719 654.1875 86.238281 621.398438 105.808594 Z M 562.183594 334.078125 C 578.324219 335.53125 594.585938 343.699219 607.546875 355.285156 C 588.269531 353.308594 570.398438 345.863281 562.183594 334.078125 Z M 562.183594 334.078125 " fill-opacity="1" fill-rule="nonzero"/></g></g></g></g><g clip-path="url(#cb823953d7)"><g clip-path="url(#44f84b0ddf)"><g clip-path="url(#427ab0d0ea)"><g clip-path="url(#08af5ec5a3)"><g clip-path="url(#4431a92106)"><path fill="#000000" d="M 644.511719 597.921875 C 649.605469 594.203125 655.644531 591.757812 661.484375 589.417969 C 671.078125 584.414062 681.40625 581.347656 691.453125 577.429688 C 703.664062 572.078125 716.589844 568.90625 729.488281 565.703125 C 729.632812 566.273438 729.769531 566.847656 729.835938 567.433594 C 722.921875 570.359375 716.390625 574.183594 709.289062 576.644531 C 704.617188 578.070312 699.972656 579.589844 695.464844 581.496094 C 689.039062 584.421875 682.300781 586.480469 675.71875 589.007812 C 667.820312 592.316406 660.09375 595.984375 652.335938 599.605469 C 649.761719 601.582031 651.835938 605.371094 652.175781 607.980469 C 652.355469 608.816406 652.609375 609.800781 652.996094 610.707031 C 652.699219 611.378906 652.578125 612.148438 652.570312 612.941406 C 652.445312 614.78125 652.496094 616.597656 652.640625 618.394531 C 651.039062 618.363281 649.109375 619.289062 647.351562 620.039062 C 647.238281 619.582031 647.058594 619.113281 646.738281 618.65625 C 646.035156 615.757812 645.496094 612.820312 644.804688 609.917969 C 644.46875 606.941406 641.089844 599.34375 644.511719 597.921875 Z M 669.484375 608.660156 C 678.707031 604 688.191406 600.109375 698.023438 596.976562 C 698.746094 601.570312 699.464844 606.164062 700.609375 610.679688 C 702.019531 617.9375 703.421875 622.667969 706.792969 627.777344 C 707.90625 629.46875 709.238281 631.203125 710.855469 633.082031 C 702.527344 635.144531 695.179688 639.449219 687.296875 642.648438 C 680.980469 644.777344 674.542969 646.6875 668.046875 648.191406 C 662.90625 637.71875 656.839844 626.488281 658.089844 614.46875 C 661.34375 611.671875 665.722656 610.617188 669.484375 608.660156 Z M 730.203125 588.335938 C 737.695312 585.660156 744.789062 581.929688 752.488281 579.796875 C 762.714844 576.820312 772.320312 572.195312 782.394531 568.808594 C 789.863281 566.96875 797.0625 564.269531 804.335938 561.820312 C 821.5625 557.121094 838.261719 550.742188 855.0625 544.726562 C 861.714844 542.738281 868.289062 540.539062 874.84375 538.253906 C 875.238281 538.027344 875.769531 537.84375 876.328125 537.660156 C 877.03125 547.132812 880.421875 556.152344 884.71875 564.5625 C 881.578125 565.148438 877.429688 567.347656 875.371094 567.664062 C 866.699219 570.671875 858.070312 573.804688 849.394531 576.796875 C 827.644531 585.71875 805.289062 593.199219 783.296875 601.535156 C 772.453125 604.683594 762.214844 609.484375 751.566406 613.175781 C 740.757812 616.367188 730.0625 620.210938 719.886719 625.035156 C 718.492188 625.621094 715.414062 626.691406 713.355469 628.019531 C 710.242188 624.171875 706.316406 619.058594 704.804688 611.707031 C 703.738281 607.449219 703.039062 603.109375 702.28125 598.789062 C 702.457031 598.714844 702.636719 598.640625 702.796875 598.5 C 711.609375 594.34375 721.007812 591.523438 730.203125 588.335938 Z M 919.996094 533.574219 C 920.191406 534.191406 920.367188 535.03125 920.558594 535.976562 C 920.414062 536.730469 920.722656 537.664062 921.109375 538.566406 C 921.589844 540.59375 922.242188 542.625 923.339844 543.785156 C 921.78125 543.925781 919.976562 545.425781 918.574219 545.925781 C 913.292969 548.585938 907.9375 551.097656 902.941406 554.277344 C 898.242188 557.289062 892.925781 559.34375 888.289062 562.421875 C 884.414062 554.871094 880.804688 546.804688 881.472656 538.203125 C 881.511719 537.820312 881.417969 537.480469 881.265625 537.167969 C 894.003906 534.625 907.078125 534.683594 919.996094 533.574219 Z M 935.636719 533.117188 C 932.367188 534.480469 929.117188 535.921875 925.789062 537.148438 C 925.59375 536.339844 925.398438 535.527344 925.195312 534.71875 C 928.652344 534.039062 932.105469 533.3125 935.636719 533.117188 Z M 637.328125 646.058594 C 634.753906 642.148438 633.539062 637.546875 632.140625 633.125 C 637.273438 630.683594 642.40625 628.222656 647.679688 626.105469 C 648.960938 625.199219 651.582031 624.707031 653.441406 623.796875 C 654.519531 628.785156 656.441406 633.597656 658.855469 638.214844 C 659.097656 638.703125 659.320312 639.207031 659.535156 639.710938 C 652.414062 642.582031 645.011719 645.277344 637.328125 646.058594 Z M 640.035156 594.710938 C 637.691406 598.578125 639.925781 603.351562 640.429688 607.472656 C 641.519531 611.464844 641.519531 617.644531 643.730469 621.199219 C 638.59375 622.695312 633.328125 624.203125 628.988281 627.445312 C 626.984375 628.832031 626.316406 631.238281 627.230469 633.476562 C 628.890625 638.160156 629.597656 643.292969 632.453125 647.464844 C 633.617188 649.167969 635.355469 651.085938 637.613281 650.910156 C 641.109375 650.441406 644.507812 649.292969 647.914062 648.339844 C 650.003906 647.5625 657.730469 646.429688 661.324219 644.417969 C 662.3125 647.207031 663.3125 649.996094 664.902344 652.480469 C 666.5625 655.207031 669.347656 654.609375 671.816406 653.53125 C 677.9375 651.78125 683.933594 649.644531 689.773438 647.117188 C 697.679688 643.96875 706.066406 642.078125 713.898438 638.820312 C 718.476562 636.746094 718.257812 634.648438 716.210938 631.691406 C 727.101562 627.09375 738.46875 623.296875 749.554688 619.027344 C 761.25 613.90625 773.773438 610.988281 785.410156 605.683594 C 803.929688 599.15625 822.554688 592.933594 840.636719 585.199219 C 851.085938 582.105469 861.132812 577.859375 871.523438 574.613281 C 877.035156 572.757812 882.574219 570.964844 887.90625 568.648438 C 888.277344 568.488281 888.484375 568.207031 888.632812 567.890625 C 894.601562 564.617188 900.359375 560.769531 906.605469 557.9375 C 911.78125 555.703125 916.597656 552.757812 921.460938 549.925781 C 923.175781 548.722656 927.027344 547.636719 925.40625 544.90625 C 925.527344 544.769531 925.753906 544.773438 925.996094 544.734375 C 927.085938 544.34375 927.351562 543.152344 927.171875 542.109375 C 929.621094 541.34375 932.539062 539.414062 934.273438 538.9375 C 937.308594 536.824219 945.769531 535.425781 942.9375 530.3125 C 939.785156 526.015625 933.492188 528.066406 929.082031 528.753906 C 927.152344 529.359375 924.992188 529.507812 923.023438 530.070312 C 921.09375 528.300781 918.226562 528.925781 914.382812 529.09375 C 902.683594 529.273438 891.085938 530.851562 879.542969 532.628906 C 879.070312 532.242188 878.5 531.996094 877.921875 532.148438 C 873.386719 533.292969 868.875 534.539062 864.390625 535.878906 C 853.699219 539.355469 842.964844 542.792969 832.570312 547.097656 C 822.164062 551.996094 810.621094 553.558594 799.871094 557.597656 C 788.054688 560.601562 777.417969 566.308594 765.632812 569.535156 C 758.171875 571.800781 751.144531 575.230469 743.921875 578.117188 C 736.621094 580.699219 729.238281 582.964844 722.132812 586.046875 C 715.085938 588.359375 708.21875 591.332031 701.648438 594.765625 C 701.515625 594.238281 701.320312 593.730469 700.929688 593.320312 C 700.839844 592.964844 700.6875 592.628906 700.484375 592.324219 C 699.625 591.019531 697.890625 590.3125 696.449219 591.167969 C 692.898438 592.699219 689.304688 594.132812 685.714844 595.574219 C 678.1875 598.496094 670.367188 600.695312 663.0625 604.191406 C 661.152344 605.070312 659.296875 606.078125 657.488281 607.160156 C 656.839844 605.667969 656.089844 604.214844 655.832031 603.144531 C 662.976562 599.664062 670.917969 597.8125 678.222656 594.59375 C 688.335938 590.4375 698.847656 587.324219 708.683594 582.5 C 715.429688 579.265625 722.734375 577.4375 729.558594 574.414062 C 735.988281 572.085938 735.371094 568.9375 733.441406 563.238281 C 733.230469 562.640625 732.984375 562.140625 732.714844 561.730469 C 730.835938 558.882812 727.585938 560.160156 724.453125 561.222656 C 719.765625 562.648438 715.160156 564.335938 710.539062 565.953125 C 698.308594 569.308594 686.183594 572.902344 674.703125 578.410156 C 666.203125 581.703125 657.277344 583.785156 649.402344 588.574219 C 646.132812 590.339844 642.292969 591.59375 640.035156 594.710938 " fill-opacity="1" fill-rule="nonzero"/></g></g></g></g></g><g clip-path="url(#151ceb3c34)"><g clip-path="url(#2f7a6442e2)"><g clip-path="url(#a1c3523391)"><path fill="#ef988f" d="M 387.695312 208.5 C 394.980469 201.523438 401.542969 195.140625 408.226562 188.878906 C 412.828125 184.566406 417.480469 180.289062 422.339844 176.269531 C 424.675781 174.335938 424.792969 172.546875 423.703125 170 C 419.488281 160.167969 415.304688 150.320312 411.347656 140.386719 C 410.644531 138.617188 411.082031 136.398438 410.996094 134.386719 C 412.816406 134.484375 414.800781 134.148438 416.433594 134.753906 C 427.386719 138.800781 438.363281 142.820312 449.109375 147.378906 C 452.214844 148.695312 453.875 148.324219 456.226562 146.28125 C 466.101562 137.699219 476.128906 129.296875 486.160156 120.898438 C 487.398438 119.859375 488.902344 118.957031 490.433594 118.476562 C 497.019531 116.414062 501.796875 120.644531 500.082031 127.378906 C 497.785156 136.394531 495.167969 145.34375 492.238281 154.171875 C 489.054688 163.757812 488.976562 163.347656 498.34375 167.554688 C 507.769531 171.789062 516.871094 176.742188 526.078125 181.453125 C 530.785156 183.863281 530.683594 188.046875 529.875 192.441406 C 529.15625 196.367188 526.09375 197.160156 522.882812 197.644531 C 509.625 199.65625 496.367188 201.679688 483.085938 203.542969 C 480.132812 203.957031 478.714844 204.96875 478.214844 208.171875 C 476.226562 220.96875 473.925781 233.71875 471.675781 246.472656 C 471.011719 250.246094 469.273438 253.546875 465.277344 254.433594 C 460.929688 255.394531 458.03125 252.890625 456.421875 249.109375 C 451.636719 237.875 446.835938 226.640625 442.421875 215.253906 C 440.980469 211.527344 439.253906 210.917969 435.414062 211.355469 C 424.203125 212.636719 412.914062 213.257812 401.652344 214.113281 C 398.507812 214.355469 395.355469 214.671875 392.210938 214.628906 C 390.722656 214.609375 388.429688 214.242188 387.949219 213.296875 C 387.207031 211.839844 387.710938 209.75 387.695312 208.5 Z M 406.753906 205.066406 C 406.632812 205.121094 406.511719 205.175781 406.390625 205.230469 C 406.507812 205.15625 406.625 205.085938 406.742188 205.011719 C 408.945312 204.902344 411.179688 204.984375 413.347656 204.652344 C 420.890625 203.5 428.410156 202.203125 436.519531 200.867188 C 434.292969 195.445312 432.375 190.773438 430.054688 185.117188 C 421.953125 192.050781 414.355469 198.558594 406.753906 205.066406 Z M 447.6875 196.097656 C 454.496094 195.46875 460.230469 195.046875 465.921875 194.304688 C 466.890625 194.179688 468.199219 192.8125 468.476562 191.785156 C 470.261719 185.128906 471.804688 178.40625 473.449219 171.621094 C 468.378906 169.183594 463.457031 166.679688 458.398438 164.496094 C 457.324219 164.03125 455.359375 164.265625 454.457031 164.992188 C 449.320312 169.125 444.382812 173.5 439.191406 177.953125 C 442.355469 184.703125 445.46875 191.355469 447.6875 196.097656 Z M 505.515625 187.402344 C 505.617188 186.984375 505.714844 186.5625 505.816406 186.144531 C 499.351562 183.160156 492.886719 180.175781 485.800781 176.90625 C 484.570312 181.855469 483.460938 186.328125 482.277344 191.097656 C 490.429688 189.800781 497.972656 188.601562 505.515625 187.402344 Z M 433.640625 166.695312 C 437.179688 163.464844 440.148438 160.75 443.734375 157.472656 C 436.375 153.585938 430.160156 150.300781 423.074219 146.554688 C 426.75 153.5625 429.957031 159.671875 433.640625 166.695312 Z M 477.058594 158.953125 C 478.867188 152.589844 480.589844 146.515625 482.316406 140.441406 C 482.050781 140.277344 481.785156 140.113281 481.519531 139.949219 C 476.480469 144.613281 471.445312 149.28125 465.863281 154.453125 C 470.140625 156.171875 473.441406 157.5 477.058594 158.953125 Z M 464.582031 208.957031 C 461.117188 208.96875 457.527344 208.980469 453.617188 208.988281 C 456.191406 214.78125 458.34375 219.640625 460.5 224.496094 C 460.808594 224.449219 461.121094 224.40625 461.429688 224.359375 C 462.585938 218.714844 463.742188 213.066406 464.582031 208.957031 Z M 464.582031 208.957031 " fill-opacity="1" fill-rule="nonzero"/></g></g></g><path fill="#d05c28" d="M 308.5625 372.542969 C 304.378906 364.609375 300.136719 356.738281 295.953125 348.863281 C 294.601562 346.28125 297.308594 343.757812 300.074219 345.050781 C 308.007812 348.679688 315.511719 352.984375 322.769531 357.660156 C 328.921875 350.769531 334.699219 343.636719 340.175781 336.316406 C 342.574219 333.058594 348.292969 336.132812 345.894531 339.394531 C 345.15625 344.742188 343.617188 350.09375 342.390625 355.320312 C 341.34375 359.875 340.238281 364.363281 339.128906 368.914062 C 345.648438 373.710938 352.105469 378.691406 358.625 383.613281 C 360.285156 384.90625 359.425781 387.980469 357.273438 388.347656 C 349.707031 389.578125 342.203125 390.6875 334.640625 391.792969 C 333.164062 397.757812 331.8125 403.722656 331.011719 409.75 C 330.765625 411.84375 327.566406 413.257812 326.273438 410.921875 C 323.324219 405.445312 320.679688 399.789062 318.21875 394.070312 C 308.378906 395.421875 298.539062 396.714844 288.699219 397.941406 C 285.992188 398.3125 283.101562 395.238281 285.683594 393.085938 C 293.679688 386.625 301.304688 379.738281 308.5625 372.542969 Z M 308.5625 372.542969 " fill-opacity="1" fill-rule="nonzero"/><g clip-path="url(#88748a61c3)"><g clip-path="url(#0e0bf1bfa4)"><g clip-path="url(#5881e600bf)"><path fill="#037682" d="M 947.644531 173.238281 C 923.46875 175.511719 897.804688 186.480469 885.894531 208.835938 C 880.875 218.238281 878.535156 228.835938 879.894531 239.445312 C 881.535156 252.152344 889.320312 263.261719 897.660156 272.632812 C 905.359375 281.285156 914.609375 289.1875 925.195312 294.039062 C 929.351562 295.925781 934.308594 297.726562 939.320312 298.519531 C 941.214844 299.199219 943.222656 299.695312 944.992188 300.0625 C 945.007812 300.097656 944.992188 300.148438 944.992188 300.148438 C 945.441406 304.703125 949.160156 309.417969 951.742188 313.042969 C 954.585938 316.996094 957.820312 320.570312 961.800781 323.402344 C 965.511719 326.039062 969.589844 327.546875 973.757812 328.113281 C 973.800781 328.511719 973.914062 328.878906 974.140625 329.222656 C 978.503906 335.457031 984.8125 341.121094 992.707031 341.980469 C 995.996094 342.335938 999.128906 341.761719 1002.105469 340.585938 C 1005.476562 344.257812 1011 344.816406 1015.585938 342.996094 C 1021.015625 340.847656 1023.671875 334.792969 1023.628906 329.253906 C 1023.617188 328.917969 1023.609375 328.582031 1023.597656 328.25 C 1023.613281 328.113281 1023.574219 327.964844 1023.585938 327.832031 C 1023.542969 327.515625 1023.535156 327.179688 1023.492188 326.863281 C 1023.488281 326.777344 1023.503906 326.726562 1023.488281 326.695312 C 1023.476562 326.277344 1023.414062 325.84375 1023.367188 325.441406 C 1023.324219 325.125 1023.265625 324.777344 1023.171875 324.445312 C 1023.152344 324.410156 1023.152344 324.328125 1023.132812 324.292969 C 1025.625 321.261719 1027.535156 317.855469 1028.125 313.972656 C 1028.675781 310.40625 1028.082031 306.609375 1026.234375 303.480469 C 1025.109375 301.621094 1023.441406 300.09375 1021.566406 299.613281 C 1022.085938 298.441406 1022.503906 297.242188 1022.800781 295.976562 C 1024.070312 290.585938 1023.007812 285.125 1021.304688 279.96875 C 1019.800781 275.421875 1017.757812 270.828125 1014.425781 267.308594 C 1012.921875 265.695312 1011.007812 264.257812 1008.847656 263.71875 C 1008.753906 263.386719 1008.628906 263.070312 1008.484375 262.726562 C 1008.199219 262.113281 1007.796875 261.523438 1007.347656 261 C 1009.292969 254.179688 1009.578125 246.636719 1009.25 239.851562 C 1008.695312 228.851562 1006.058594 218.078125 1001.320312 208.136719 C 996.613281 198.261719 989.726562 189.304688 981.160156 182.519531 C 971.261719 174.75 959.933594 172.082031 947.644531 173.238281 Z M 1008.765625 336.929688 C 1008.832031 336.894531 1008.914062 336.808594 1008.976562 336.773438 C 1009.164062 336.886719 1009.367188 336.945312 1009.570312 337.007812 C 1009.386719 336.980469 1009.1875 337 1009 336.972656 C 1009 336.972656 1008.898438 336.941406 1008.765625 336.929688 Z M 1023.421875 326.730469 C 1023.386719 326.75 1023.386719 326.75 1023.421875 326.730469 C 1023.363281 326.464844 1023.363281 326.464844 1023.421875 326.730469 Z M 1019.628906 308.425781 C 1020.597656 310.625 1020.351562 313.175781 1019.425781 315.328125 C 1018.890625 316.546875 1018.1875 317.691406 1017.351562 318.820312 C 1016.386719 319.082031 1015.601562 319.757812 1015.199219 320.90625 C 1015.140625 321.109375 1015.078125 321.3125 1015.035156 321.546875 C 1012.761719 323.957031 1010.09375 326.109375 1007.757812 328.085938 C 1003.652344 331.519531 998.535156 335.117188 992.910156 334.523438 C 988.492188 334.050781 985.054688 330.96875 981.824219 328.03125 C 984.589844 327.648438 987.363281 326.882812 990.0625 325.816406 C 999.234375 322.171875 1008.382812 315.5625 1015.226562 308.453125 C 1016.070312 307.574219 1016.898438 306.660156 1017.660156 305.703125 C 1018.289062 306.640625 1019.144531 307.367188 1019.628906 308.425781 Z M 1014.675781 289.296875 C 1015.726562 299.648438 1004.914062 307.273438 997.515625 312.5625 C 989.378906 318.371094 978.917969 323.644531 968.976562 319.042969 C 964.410156 316.949219 960.804688 313.234375 957.695312 309.339844 C 955.734375 306.867188 954.15625 303.851562 952.238281 301.226562 C 954.625 301.476562 956.988281 301.609375 959.367188 301.605469 C 968.351562 301.5 977.21875 299.503906 985.359375 295.683594 C 994.148438 291.5625 1001.90625 285.363281 1005.898438 276.34375 C 1006.414062 275.171875 1006.984375 273.933594 1007.515625 272.628906 C 1008.445312 273.574219 1009.296875 274.605469 1009.980469 275.722656 C 1012.421875 279.636719 1014.242188 284.691406 1014.675781 289.296875 Z M 964.3125 245.53125 C 964.617188 247.367188 963.527344 247.3125 962.570312 246.167969 C 961.757812 245.203125 961.234375 243.914062 960.683594 242.808594 C 960.433594 242.261719 960.152344 241.734375 959.882812 241.15625 C 961.992188 242.316406 964.027344 243.816406 964.3125 245.53125 Z M 965.109375 253.511719 C 968.308594 252.902344 970.429688 249.894531 970.707031 246.769531 C 971.109375 242.054688 967.714844 238.738281 964.09375 236.265625 C 962.164062 234.964844 959.96875 233.636719 957.628906 232.601562 C 957.640625 232.464844 957.636719 232.296875 957.648438 232.164062 C 957.886719 229.363281 959.648438 226.078125 962.757812 225.855469 C 965.378906 225.679688 967.734375 227.855469 969.3125 229.683594 C 973.484375 234.453125 975.652344 241.105469 977.265625 247.117188 C 979.144531 254.261719 980.160156 261.617188 981.742188 268.835938 C 982.898438 274.160156 984.28125 280.296875 987.136719 285.222656 C 986.476562 285.660156 985.769531 286.082031 985.09375 286.484375 C 985.078125 286.453125 985.042969 286.386719 985.023438 286.351562 C 979.316406 275.953125 968.03125 270.035156 958.921875 263.03125 C 954.230469 259.433594 949.644531 255.398438 946.636719 250.261719 C 944.488281 246.574219 941.988281 238.273438 948.472656 237.300781 C 949.605469 237.117188 950.832031 237.265625 952.011719 237.566406 C 953.316406 243.40625 957.484375 254.96875 965.109375 253.511719 Z M 999.953125 237.40625 C 1000.804688 248.414062 997.953125 258.609375 996.742188 269.40625 C 996.566406 270.902344 997.378906 271.867188 998.480469 272.253906 C 997.113281 275.40625 995.40625 278.234375 992.898438 280.683594 C 992.78125 280.789062 992.667969 280.894531 992.523438 281.015625 C 991.546875 278.566406 990.539062 276.132812 989.796875 273.558594 C 988.4375 268.894531 987.449219 264.117188 986.472656 259.375 C 984.625 250.472656 982.839844 241.367188 978.703125 233.179688 C 975.5625 226.925781 970.050781 219.269531 962.113281 219.832031 C 956.015625 220.257812 952.59375 225.277344 951.714844 230.761719 C 948.652344 230.28125 945.566406 230.621094 942.769531 232.375 C 936.113281 236.585938 936.636719 245.476562 939.628906 251.769531 C 943.570312 260.144531 951.28125 266.199219 958.695312 271.390625 C 966.433594 276.792969 973.984375 282 980.609375 288.808594 C 978.789062 289.613281 976.9375 290.351562 975.078125 290.925781 C 969.207031 292.800781 963.058594 293.765625 956.859375 293.695312 C 956.808594 293.042969 956.402344 292.367188 955.730469 292.21875 C 951.636719 291.316406 947.460938 291.136719 943.277344 290.621094 C 939.128906 290.085938 935.074219 288.863281 931.277344 287.25 C 923.125 283.769531 915.800781 278.269531 909.480469 272.109375 C 901.832031 264.660156 894.296875 255.835938 890.554688 245.699219 C 887.25 236.773438 887.84375 227.195312 891.171875 218.359375 C 898.949219 197.796875 919.996094 186.84375 940.546875 183.121094 C 951.105469 181.191406 961.878906 180.847656 971.320312 186.652344 C 979.535156 191.671875 986.101562 199.484375 990.78125 207.804688 C 995.996094 216.8125 999.152344 227.050781 999.953125 237.40625 Z M 999.953125 237.40625 " fill-opacity="1" fill-rule="nonzero"/></g></g></g><g clip-path="url(#ae4b4aeae0)"><g clip-path="url(#ed34861c95)"><g clip-path="url(#af1981c936)"><path fill="#037682" d="M 907.550781 240.65625 C 906.800781 239.019531 906.21875 237.378906 905.816406 235.601562 C 905.378906 233.753906 905.257812 231.867188 905.050781 229.980469 C 904.882812 228.246094 904.867188 226.554688 904.917969 224.828125 C 904.996094 222.832031 904.75 221.265625 905.433594 219.457031 C 906.402344 216.984375 902.027344 215.71875 901.535156 218.28125 C 901.15625 220.347656 900.273438 222.183594 900.015625 224.316406 C 899.761719 226.449219 899.875 228.640625 900.167969 230.773438 C 900.445312 232.792969 901.222656 234.796875 902.046875 236.648438 C 902.835938 238.515625 903.925781 240.308594 905.113281 241.964844 C 906.125 243.375 908.320312 242.324219 907.550781 240.65625 Z M 907.550781 240.65625 " fill-opacity="1" fill-rule="nonzero"/></g></g></g><g clip-path="url(#0e74b7f99f)"><g clip-path="url(#fc4214bfb4)"><g clip-path="url(#df11df62b4)"><path fill="#037682" d="M 912.425781 252.90625 C 911.351562 251.695312 909.152344 253.214844 910.0625 254.597656 C 917.488281 265.898438 928.375 274.242188 940.9375 279.136719 C 942.328125 279.664062 943.351562 277.460938 942.023438 276.726562 C 930.800781 270.691406 920.886719 262.421875 912.425781 252.90625 Z M 912.425781 252.90625 " fill-opacity="1" fill-rule="nonzero"/></g></g></g><g clip-path="url(#af6895073f)"><g clip-path="url(#c1366af32e)"><g clip-path="url(#6fb4a20e07)"><path fill="#037682" d="M 920.699219 124.679688 C 921.945312 120.910156 921.546875 116.367188 921.652344 112.449219 C 921.742188 108.578125 921.882812 104.722656 921.953125 100.820312 C 922.042969 96.953125 922.132812 93.082031 922.222656 89.210938 C 922.261719 87.152344 922.335938 85.074219 922.34375 83.03125 C 922.375 80.636719 921.976562 79.492188 920.273438 77.902344 C 919.601562 77.285156 918.679688 77.226562 917.960938 77.867188 C 916.210938 79.355469 915.742188 80.457031 915.675781 82.789062 C 915.632812 84.847656 915.59375 86.910156 915.550781 88.96875 C 915.460938 92.839844 915.421875 96.722656 915.335938 100.59375 C 915.246094 104.464844 915.238281 108.332031 915.199219 112.214844 C 915.144531 116.152344 914.574219 120.703125 915.65625 124.539062 C 916.394531 126.945312 919.832031 127.183594 920.699219 124.679688 Z M 920.699219 124.679688 " fill-opacity="1" fill-rule="nonzero"/></g></g></g><g clip-path="url(#e086c1f0dd)"><g clip-path="url(#441b500e7c)"><g clip-path="url(#2568b856f2)"><path fill="#037682" d="M 1024.464844 80.085938 C 1011.414062 92.566406 1001.582031 108.585938 995.472656 125.539062 C 994.960938 126.957031 997.046875 127.835938 997.8125 126.574219 C 1007.191406 111.523438 1017.058594 96.757812 1026.640625 81.847656 C 1027.523438 80.484375 1025.605469 78.964844 1024.464844 80.085938 Z M 1024.464844 80.085938 " fill-opacity="1" fill-rule="nonzero"/></g></g></g><g clip-path="url(#a7744f87fa)"><g clip-path="url(#9280a34f9c)"><g clip-path="url(#392fad670d)"><path fill="#037682" d="M 1079.074219 170.070312 C 1077.636719 169.609375 1076.128906 170.121094 1074.714844 170.496094 C 1073.421875 170.851562 1072.089844 171.140625 1070.777344 171.464844 C 1067.933594 172.183594 1065.140625 172.914062 1062.28125 173.515625 C 1059.417969 174.117188 1056.570312 174.667969 1053.6875 175.070312 C 1050.867188 175.4375 1047.71875 175.425781 1045.074219 176.507812 C 1043.054688 177.335938 1043.742188 180.28125 1045.5 180.863281 C 1048.390625 181.820312 1052.039062 181.179688 1054.976562 180.875 C 1057.863281 180.558594 1060.796875 180.171875 1063.644531 179.539062 C 1066.488281 178.902344 1069.363281 178.167969 1072.078125 177.136719 C 1073.601562 176.574219 1075.058594 175.960938 1076.511719 175.265625 C 1077.832031 174.644531 1079.335938 173.964844 1080.066406 172.636719 C 1080.625 171.699219 1080.207031 170.4375 1079.074219 170.070312 Z M 1079.074219 170.070312 " fill-opacity="1" fill-rule="nonzero"/></g></g></g><g clip-path="url(#35e9b92fb5)"><g clip-path="url(#8a13187790)"><g clip-path="url(#60303c931f)"><path fill="#037682" d="M 826.890625 105.285156 C 830.4375 109.203125 833.71875 113.34375 837.425781 117.085938 C 841.308594 121.074219 845.535156 124.753906 849.949219 128.160156 C 852.109375 129.804688 854.3125 131.382812 856.613281 132.820312 C 858.78125 134.164062 861.171875 135.855469 863.808594 134.992188 C 864.753906 134.695312 865.167969 133.964844 865.074219 132.996094 C 864.761719 130.359375 862.445312 128.972656 860.527344 127.453125 C 858.214844 125.675781 855.921875 123.851562 853.65625 122.007812 C 849.214844 118.320312 844.9375 114.457031 840.898438 110.339844 C 833.808594 103.0625 827.640625 95.203125 817.199219 93.160156 C 815.769531 92.867188 814.589844 94.859375 816.085938 95.667969 C 820.371094 97.957031 823.675781 101.746094 826.890625 105.285156 Z M 826.890625 105.285156 " fill-opacity="1" fill-rule="nonzero"/></g></g></g><g clip-path="url(#73462d96fd)"><g clip-path="url(#112a896281)"><g clip-path="url(#4b1c4928b1)"><path fill="#037682" d="M 776.132812 220.804688 C 778.179688 221.535156 780.125 222.316406 782.265625 222.824219 C 786.75 223.898438 791.320312 224.503906 795.957031 224.4375 C 800.457031 224.355469 804.996094 223.875 809.425781 222.945312 C 811.605469 222.496094 813.746094 221.898438 815.832031 221.117188 C 816.960938 220.683594 818.171875 220.332031 819.085938 219.585938 C 819.9375 218.875 820.53125 218.003906 821.398438 217.324219 C 822.367188 216.59375 821.617188 214.957031 820.511719 214.957031 C 819.4375 214.9375 818.523438 214.578125 817.46875 214.507812 C 816.496094 214.4375 815.546875 214.648438 814.5625 214.792969 C 812.414062 215.140625 810.28125 215.519531 808.164062 215.847656 C 804.082031 216.46875 799.972656 216.804688 795.855469 216.890625 C 791.773438 216.957031 787.703125 216.890625 783.597656 216.757812 C 781.488281 216.699219 779.292969 216.648438 777.195312 216.457031 C 775.078125 216.234375 773.082031 215.519531 770.910156 215.582031 C 769.402344 215.625 768.917969 217.414062 770.097656 218.269531 C 771.910156 219.589844 774.035156 220.0625 776.132812 220.804688 Z M 776.132812 220.804688 " fill-opacity="1" fill-rule="nonzero"/></g></g></g><g clip-path="url(#589d607e77)"><g clip-path="url(#113d5a121f)"><g clip-path="url(#28041d1b2f)"><path fill="#037682" d="M 854.1875 318.164062 C 848.382812 324.679688 843.285156 331.875 837.839844 338.660156 C 835.089844 342.085938 832.375 345.496094 829.628906 348.925781 C 827.125 352.09375 823.863281 355.667969 822.738281 359.585938 C 822.144531 361.644531 824.320312 363.324219 826.199219 362.398438 C 829.898438 360.585938 832.796875 356.652344 835.386719 353.5625 C 838.203125 350.183594 840.949219 346.757812 843.648438 343.3125 C 849.007812 336.445312 854.601562 329.621094 859.195312 322.191406 C 861.066406 319.191406 856.667969 315.347656 854.1875 318.164062 Z M 854.1875 318.164062 " fill-opacity="1" fill-rule="nonzero"/></g></g></g><g clip-path="url(#1ce594b2a5)"><g clip-path="url(#25737d59f3)"><g clip-path="url(#1c8d3418e5)"><path fill="#037682" d="M 911.035156 347.5 C 910.304688 348.273438 909.472656 349.101562 909.066406 350.082031 C 908.628906 351.167969 908.34375 352.296875 908.007812 353.410156 C 907.363281 355.539062 906.757812 357.648438 906.164062 359.792969 C 904.984375 364.164062 903.855469 368.546875 902.746094 372.964844 C 901.644531 377.25 900.546875 381.535156 899.515625 385.867188 C 898.976562 388.023438 898.757812 390.308594 898.117188 392.4375 C 897.949219 392.992188 897.695312 393.46875 897.441406 394.027344 C 897.363281 394.199219 897.285156 394.367188 897.238281 394.519531 C 896.390625 394.761719 895.800781 395.800781 896.296875 396.640625 C 897.125 398.105469 898.230469 398.742188 899.953125 398.628906 C 902.242188 398.460938 903.769531 396.324219 904.5 394.359375 C 906.320312 389.605469 907.257812 384.386719 908.472656 379.449219 C 909.679688 374.339844 910.941406 369.246094 912.117188 364.15625 C 912.679688 361.648438 913.210938 359.15625 913.722656 356.628906 C 914.003906 355.246094 914.296875 353.816406 914.523438 352.421875 C 914.765625 350.972656 914.617188 349.90625 914.210938 348.511719 C 913.902344 347.148438 912.140625 346.394531 911.035156 347.5 Z M 911.035156 347.5 " fill-opacity="1" fill-rule="nonzero"/></g></g></g><g clip-path="url(#e1b2c87062)"><g clip-path="url(#391659ef11)"><g clip-path="url(#968c6f81ab)"><path fill="#037682" d="M 956.6875 354.554688 C 955.816406 352.6875 953.003906 353.855469 953.359375 355.789062 C 953.535156 356.667969 953.59375 357.488281 953.636719 358.359375 C 953.695312 359.257812 953.9375 360.105469 954.195312 360.988281 C 954.613281 362.632812 954.976562 364.261719 955.457031 365.871094 C 956.390625 369.191406 957.65625 372.421875 958.503906 375.746094 C 958.9375 377.339844 959.070312 379.011719 960.585938 380.019531 C 962.089844 381 964.300781 380.535156 964.886719 378.691406 C 965.070312 378.082031 964.9375 377.601562 964.753906 377.019531 C 964.753906 377.019531 964.734375 376.988281 964.734375 376.988281 C 964.683594 376.890625 964.679688 376.804688 964.628906 376.707031 C 964.636719 376.40625 964.621094 375.902344 964.601562 375.871094 C 964.554688 374.75 964.171875 373.722656 963.859375 372.660156 C 963.195312 370.636719 962.519531 368.582031 961.804688 366.542969 C 961.058594 364.4375 960.226562 362.335938 959.414062 360.265625 C 959.019531 359.289062 958.703125 358.226562 958.242188 357.289062 C 957.777344 356.347656 957.167969 355.527344 956.6875 354.554688 Z M 963.285156 378.402344 C 963.253906 378.421875 963.253906 378.421875 963.285156 378.402344 C 963.320312 378.386719 963.351562 378.367188 963.417969 378.332031 C 963.351562 378.367188 963.320312 378.386719 963.285156 378.402344 Z M 963.285156 378.402344 " fill-opacity="1" fill-rule="nonzero"/></g></g></g><g clip-path="url(#06cfeb8b9f)"><g clip-path="url(#95a5c3a389)"><g clip-path="url(#a7609de7b9)"><path fill="#037682" d="M 964.734375 376.90625 C 964.75 376.9375 964.769531 376.972656 964.753906 377.019531 C 964.878906 377.335938 964.714844 376.871094 964.734375 376.90625 Z M 964.734375 376.90625 " fill-opacity="1" fill-rule="nonzero"/></g></g></g><g clip-path="url(#160050e8cc)"><g clip-path="url(#73dbccf700)"><g clip-path="url(#4b80ada0b6)"><path fill="#037682" d="M 1092.699219 248.964844 C 1092.699219 248.964844 1092.628906 248.914062 1092.5625 248.867188 C 1092.542969 248.835938 1092.164062 248.527344 1092.066406 248.496094 C 1091.691406 248.273438 1091.25 248.167969 1090.796875 248.113281 C 1090.160156 248.03125 1089.699219 248.363281 1089.480469 248.820312 C 1089.445312 248.839844 1089.429688 248.804688 1089.394531 248.824219 C 1089.109375 248.765625 1088.824219 248.707031 1088.519531 248.613281 C 1087.136719 248.253906 1085.753906 247.890625 1084.355469 247.582031 C 1081.253906 246.867188 1078.113281 246.003906 1074.925781 245.757812 C 1073.199219 245.625 1071.664062 247.042969 1071.394531 248.671875 C 1071.09375 250.488281 1072.15625 251.917969 1073.785156 252.574219 C 1076.867188 253.804688 1080.183594 254.445312 1083.402344 255.226562 C 1084.195312 255.4375 1085.003906 255.597656 1085.8125 255.757812 C 1086.703125 255.917969 1087.617188 256.191406 1088.519531 256.132812 C 1089.941406 256.089844 1091.167969 255.769531 1092.296875 254.867188 C 1093.363281 254 1093.941406 252.628906 1093.652344 251.296875 C 1093.695312 250.425781 1093.453125 249.578125 1092.699219 248.964844 Z M 1091.660156 249.011719 C 1091.660156 249.011719 1091.695312 248.992188 1091.710938 249.023438 C 1092.390625 249.339844 1092.390625 249.339844 1091.660156 249.011719 Z M 1089.363281 250.03125 C 1089.382812 250.0625 1089.367188 250.113281 1089.402344 250.179688 C 1089.367188 250.113281 1089.347656 250.082031 1089.363281 250.03125 Z M 1089.363281 250.03125 " fill-opacity="1" fill-rule="nonzero"/></g></g></g><g clip-path="url(#4eb9c2fa33)"><g clip-path="url(#de4aecf9bf)"><g clip-path="url(#e464fcaf03)"><g clip-path="url(#e86553be64)"><path fill="#010101" d="M 232.453125 101.824219 C 242.054688 79.660156 266.425781 69.929688 282.671875 91.972656 C 303.160156 119.617188 286.21875 156.46875 269.628906 181.925781 C 269.25 182.492188 269.121094 183.105469 269.242188 183.773438 C 272.800781 204.582031 275.683594 225.457031 277.882812 246.398438 C 278.941406 256.496094 275.621094 264.914062 267.921875 271.648438 C 261.730469 276.882812 255.054688 281.40625 247.902344 285.226562 C 223.125 298.917969 204.769531 306.785156 177.910156 290.199219 C 148.257812 271.882812 124.445312 247.417969 103.683594 219.636719 C 94.78125 207.671875 83.878906 190.605469 85.269531 175.21875 C 85.820312 169.308594 88.421875 162.632812 93.078125 155.191406 C 116.746094 117.605469 150.527344 96.046875 194.332031 91.074219 C 208.992188 89.433594 219.804688 92.898438 230.613281 102.210938 C 231.433594 102.914062 232.039062 102.78125 232.453125 101.824219 Z M 179.621094 99.589844 C 148.515625 104.699219 117.8125 124.089844 103.28125 152.609375 C 100.4375 158.191406 97.582031 167.347656 99.796875 173.839844 C 100.101562 174.753906 100.386719 174.773438 100.617188 173.800781 C 101.992188 168.589844 104.035156 163.652344 106.746094 158.992188 C 109.457031 154.332031 112.738281 150.113281 116.589844 146.335938 C 137.933594 124.8125 187.921875 94.980469 218.433594 113.757812 C 218.589844 113.867188 218.765625 113.902344 218.953125 113.867188 C 219.144531 113.832031 219.292969 113.734375 219.402344 113.574219 C 219.484375 113.449219 219.527344 113.316406 219.523438 113.167969 C 219.519531 113.015625 219.472656 112.882812 219.382812 112.765625 C 210.242188 98.9375 194.554688 97.121094 179.601562 99.578125 Z M 217.863281 121.976562 C 210.21875 108.300781 179.386719 111.007812 149.003906 127.996094 C 118.625 144.984375 100.175781 169.835938 107.820312 183.511719 C 115.464844 197.1875 146.300781 194.476562 176.683594 177.5 C 207.070312 160.519531 225.484375 135.628906 217.84375 121.960938 Z M 271.648438 236.28125 C 266.546875 191.949219 258.621094 115.882812 210.277344 96.355469 C 210.277344 96.355469 210.257812 96.363281 210.21875 96.386719 C 210.101562 96.550781 209.996094 96.726562 209.90625 96.910156 C 209.828125 97.023438 209.8125 97.144531 209.855469 97.277344 C 209.898438 97.40625 209.984375 97.492188 210.113281 97.539062 C 231.75 107.589844 228.574219 132.585938 217.300781 149.402344 C 199.183594 176.378906 161.300781 195.957031 129.179688 197.640625 C 110.667969 198.59375 92.050781 186.015625 94.097656 165.804688 C 94.148438 165.273438 93.914062 165.078125 93.394531 165.214844 C 93.136719 165.257812 92.914062 165.363281 92.71875 165.53125 C 92.523438 165.703125 92.382812 165.910156 92.304688 166.15625 C 88.398438 178.132812 90.105469 189.835938 97.417969 201.261719 C 106.652344 215.746094 117.078125 229.316406 128.691406 241.976562 C 140.308594 254.632812 152.933594 266.183594 166.574219 276.628906 C 183.8125 289.855469 203.882812 299.78125 225.507812 290.699219 C 234.0625 286.9375 242.308594 282.585938 250.246094 277.644531 C 261.554688 270.78125 268.917969 267 272.105469 255.964844 C 273.726562 250.265625 272.332031 242.476562 271.628906 236.265625 Z M 267.464844 85.859375 C 251.921875 81.601562 241.238281 92.03125 235.902344 105.648438 C 235.765625 105.957031 235.71875 106.28125 235.769531 106.613281 C 235.820312 106.945312 235.957031 107.242188 236.179688 107.496094 L 243.027344 116.089844 C 243.191406 116.300781 243.40625 116.421875 243.671875 116.453125 C 243.933594 116.488281 244.171875 116.421875 244.382812 116.261719 C 244.523438 116.15625 244.625 116.019531 244.683594 115.855469 C 245.785156 112.917969 247.109375 110.085938 248.652344 107.359375 C 250.195312 104.628906 251.941406 102.035156 253.886719 99.578125 C 255.835938 97.121094 257.960938 94.828125 260.265625 92.703125 C 262.570312 90.574219 265.027344 88.640625 267.632812 86.894531 C 268.355469 86.421875 268.296875 86.066406 267.464844 85.859375 Z M 266.164062 105.054688 C 270.25 104.882812 273.300781 107.105469 275.351562 111.703125 C 282.636719 128.191406 274.171875 149.953125 265.359375 163.996094 C 265.003906 164.542969 264.910156 165.132812 265.078125 165.761719 L 267.121094 174.222656 C 267.328125 175.140625 267.65625 175.1875 268.246094 174.433594 C 277.863281 160.199219 283.808594 146.054688 286.074219 132 C 287.8125 121.160156 286.011719 98.5625 275.742188 92.796875 C 264.523438 86.503906 250.410156 114.4375 247.496094 121.96875 C 246.945312 123.40625 247.519531 124.582031 249.238281 125.480469 C 249.898438 125.832031 250.292969 125.640625 250.449219 124.898438 C 251.890625 117.367188 257.199219 105.457031 266.164062 105.054688 Z M 264.332031 111.09375 C 269.546875 123.675781 267.382812 136.183594 261.609375 147.917969 C 260.109375 150.984375 260.847656 153.367188 262.347656 156.085938 C 262.734375 156.789062 263.125 156.8125 263.550781 156.148438 C 268.898438 147.601562 280.9375 114.839844 265.609375 109.761719 C 265.347656 109.675781 265.09375 109.691406 264.847656 109.8125 C 264.597656 109.933594 264.429688 110.125 264.339844 110.386719 C 264.242188 110.628906 264.242188 110.871094 264.339844 111.113281 Z M 263 126.222656 C 263.03125 126.070312 263.03125 125.921875 263 125.769531 L 261.050781 115.410156 C 260.980469 115.203125 260.855469 115.03125 260.679688 114.898438 C 260.507812 114.765625 260.308594 114.691406 260.089844 114.675781 C 259.871094 114.660156 259.664062 114.707031 259.472656 114.8125 C 259.28125 114.917969 259.136719 115.070312 259.035156 115.265625 L 252.894531 131.617188 C 252.785156 131.890625 252.789062 132.160156 252.910156 132.425781 L 257.246094 142.25 C 257.351562 142.4375 257.5 142.585938 257.691406 142.6875 C 257.882812 142.789062 258.085938 142.828125 258.304688 142.808594 C 258.519531 142.792969 258.714844 142.714844 258.886719 142.582031 C 259.054688 142.445312 259.175781 142.277344 259.25 142.070312 Z M 263 126.222656 " fill-opacity="1" fill-rule="nonzero"/></g></g></g></g><g clip-path="url(#fc4a19a4a5)"><g clip-path="url(#bfa342b41a)"><g clip-path="url(#9050f6bb40)"><g clip-path="url(#70885ca732)"><path fill="#000000" d="M 365.25 577.441406 C 349.453125 573.066406 334.023438 566.738281 318.449219 561.527344 C 302.8125 556.285156 287.0625 551.539062 271.144531 547.09375 C 269.195312 546.574219 269.886719 543.601562 271.835938 544.121094 C 288.109375 548.363281 304.210938 552.90625 320.292969 557.917969 C 335.664062 562.773438 351.691406 567.597656 366.484375 574.210938 C 368.296875 574.980469 367.136719 577.929688 365.25 577.441406 Z M 145.433594 583.179688 C 128.363281 569.871094 111.394531 556.375 93.796875 543.726562 C 92.886719 543.0625 91.691406 544.636719 92.566406 545.363281 C 109.097656 559.652344 126.410156 573.101562 143.5625 586.695312 C 160.714844 600.292969 177.765625 614.074219 195.183594 627.339844 C 197.152344 628.832031 199.925781 626.136719 197.902344 624.453125 C 180.675781 610.417969 162.960938 596.828125 145.433594 583.179688 Z M 77.21875 612.753906 C 65.632812 600.648438 54.144531 588.515625 42.6875 576.320312 C 41.191406 574.695312 38.832031 577.21875 40.359375 578.785156 C 51.667969 590.816406 63.007812 602.785156 74.382812 614.695312 C 79.863281 620.371094 85.34375 626.050781 90.917969 631.703125 C 97.695312 638.503906 104.148438 646.320312 111.6875 652.183594 C 112.5625 652.90625 114.136719 651.945312 113.308594 650.84375 C 107.832031 643.570312 100.628906 637.253906 94.3125 630.632812 C 88.65625 624.695312 82.9375 618.722656 77.21875 612.753906 Z M 49.394531 564.382812 C 48.015625 562.980469 45.917969 565.171875 47.265625 566.636719 C 70.367188 590.96875 93.667969 615.089844 117 639.152344 C 118.082031 640.230469 119.65625 638.546875 118.671875 637.441406 C 95.667969 612.925781 72.660156 588.566406 49.394531 564.382812 Z M 204.019531 610.269531 C 168.667969 581.9375 133.054688 553.933594 97.667969 525.660156 C 96.339844 524.601562 95.382812 526.46875 96.679688 527.589844 C 96.679688 527.589844 166.457031 584.625 201.351562 613.34375 C 204.101562 615.589844 206.769531 612.515625 204.019531 610.269531 Z M 374.179688 561.066406 C 342.191406 549.140625 309.84375 538.292969 277.351562 527.847656 C 275.996094 527.414062 275.527344 529.550781 276.886719 529.984375 C 309.195312 541.050781 341.359375 552.515625 373.484375 564.195312 C 375.390625 564.933594 376.089844 561.804688 374.179688 561.066406 Z M 366.285156 658.804688 C 365.933594 659.007812 365.621094 658.992188 365.28125 658.882812 C 364.875 658.898438 364.5 658.851562 364.136719 658.648438 C 360.597656 657.242188 357.0625 655.839844 353.585938 654.46875 C 352.683594 668.191406 345.910156 684.566406 332.535156 690.085938 C 332.34375 690.140625 332.152344 690.195312 331.964844 690.25 C 331.582031 690.355469 331.113281 690.335938 330.652344 690.160156 C 326.605469 688.953125 322.5625 687.746094 318.578125 686.570312 C 318.480469 701.140625 310.695312 714.160156 298.652344 722.175781 C 298.230469 722.5 297.761719 722.480469 297.390625 722.433594 C 297.078125 722.421875 296.765625 722.40625 296.425781 722.296875 C 232.972656 705.132812 169.1875 689.136719 106 670.917969 C 105.21875 670.886719 104.453125 670.539062 103.792969 669.855469 C 75.480469 641.511719 48.832031 611.617188 21.070312 582.859375 C 19.332031 581.097656 21.101562 578.484375 23.003906 578.660156 C 37.363281 572.089844 45.371094 556.796875 42.132812 541.175781 C 41.699219 538.9375 43.542969 537.484375 45.269531 537.402344 C 45.554688 537.320312 45.863281 537.335938 46.144531 537.410156 C 55.511719 539.972656 65.136719 541.640625 74.4375 544.328125 C 77.308594 545.203125 76.339844 549.539062 73.367188 548.847656 C 65.898438 547.179688 58.617188 544.890625 51.296875 542.667969 C 64.125 555.703125 76.988281 568.675781 89.6875 581.796875 C 96.757812 589.078125 103.800781 596.265625 110.867188 603.546875 C 114.3125 607.132812 117.816406 610.757812 121.257812 614.347656 C 123.683594 616.890625 126.460938 619.234375 128.558594 622.074219 C 145.007812 627.292969 161.492188 632.449219 177.832031 638.003906 C 164.535156 626.386719 151.144531 614.796875 137.78125 603.304688 C 127.738281 594.613281 117.730469 585.859375 107.820312 576.921875 C 98.035156 568.054688 89.039062 558.34375 79.210938 549.695312 C 79.152344 549.660156 79.125 549.566406 79.0625 549.53125 C 78.335938 548.96875 77.941406 547.949219 78.152344 546.707031 C 79.140625 541.902344 81.839844 537.328125 83.90625 532.882812 L 90.769531 518.074219 C 91.773438 515.835938 95.746094 517.320312 94.863281 519.628906 C 92.984375 524.738281 91.109375 529.851562 89.265625 534.898438 C 87.597656 539.488281 86.308594 544.683594 83.628906 548.792969 C 83.5625 548.914062 83.433594 549 83.367188 549.125 C 92.925781 557.386719 103.429688 564.816406 113.1875 572.871094 C 123.15625 581.121094 133.1875 589.40625 143.15625 597.65625 C 163.539062 614.648438 184.257812 631.183594 204.972656 647.71875 C 205.121094 647.878906 205.367188 648.015625 205.515625 648.179688 C 215.960938 641.03125 222.0625 629.316406 222.449219 616.667969 C 222.320312 616.035156 222.191406 615.40625 222.027344 614.835938 C 222 614.738281 222 614.738281 221.972656 614.644531 C 217.132812 611.558594 212.609375 607.609375 208.035156 604.191406 C 204.761719 601.734375 201.460938 599.183594 198.222656 596.664062 C 198.160156 596.632812 198.101562 596.597656 197.976562 596.53125 C 156.625 563.746094 115.503906 530.6875 74.023438 497.992188 C 71.632812 496.105469 74.867188 492.867188 77.230469 494.660156 C 77.6875 494.992188 78.140625 495.324219 78.59375 495.65625 C 83.75 484.933594 89.113281 474.40625 94.511719 463.820312 C 93.660156 463.1875 92.910156 462.53125 92.058594 461.898438 C 91.726562 461.632812 91.488281 461.34375 91.441406 460.996094 C 90.566406 459.550781 91.644531 457.035156 93.84375 457.535156 C 104.933594 460.015625 116.15625 462.410156 126.917969 466.066406 C 126.050781 459.273438 128.226562 451.613281 131.007812 445.882812 C 134.6875 438.101562 140.652344 431.824219 148 427.511719 C 148.367188 426.996094 149.003906 426.710938 149.839844 426.933594 C 168.167969 432.078125 187.027344 436.550781 205.023438 442.867188 C 216.429688 446.082031 229.78125 450.539062 237.195312 452.738281 C 245.007812 455.078125 251.6875 457.585938 258.941406 461.371094 C 274.542969 469.554688 289.304688 479.828125 304.269531 489.011719 C 336.113281 508.6875 365.390625 527.660156 398.226562 551.160156 C 399.527344 552.125 399.246094 553.644531 398.425781 554.546875 C 397.902344 555.777344 396.585938 556.5625 395.214844 555.722656 C 394.289062 555.371094 393.332031 555.078125 392.410156 554.726562 C 387.308594 560.601562 382.84375 566.914062 379.449219 573.898438 C 376.398438 580.113281 374.613281 586.636719 372.703125 593.246094 C 373.75 593.667969 374.828125 594.027344 375.90625 594.386719 C 378.617188 595.410156 377.738281 599.875 374.835938 598.90625 C 364.816406 595.5 354.703125 592.125 344.613281 588.839844 C 359.449219 598.113281 373.503906 608.074219 386.902344 619.507812 C 387.234375 619.773438 387.410156 620.03125 387.554688 620.347656 C 388.242188 621.128906 388.253906 622.257812 387.839844 623.144531 C 387.820312 638.15625 379.546875 651.621094 366.285156 658.804688 Z M 388.925781 553.511719 C 350.144531 539.570312 311.359375 525.632812 272.363281 512.214844 C 272.328125 512.273438 272.199219 512.363281 272.167969 512.425781 C 265.117188 517.777344 259.773438 524.960938 256.539062 533.234375 C 255.128906 536.925781 254.214844 540.730469 253.578125 544.613281 C 253.136719 547.566406 253.261719 550.511719 253.039062 553.503906 C 292.175781 565.800781 331.15625 578.09375 369.683594 592.210938 C 371.710938 577.753906 379.574219 564.457031 388.925781 553.511719 Z M 159.976562 434.160156 C 196.820312 458.367188 233.695312 482.515625 270.195312 507.335938 C 270.351562 507.339844 270.507812 507.347656 270.691406 507.449219 C 307.527344 518.710938 343.847656 531.761719 380.03125 545.058594 C 380.953125 545.410156 381.785156 545.789062 382.707031 546.140625 C 357.035156 528.453125 331.023438 511.378906 304.515625 494.902344 C 289.3125 485.425781 274.28125 475.640625 258.984375 466.191406 C 256.730469 464.78125 254.46875 463.523438 252.199219 462.425781 C 241.367188 459.046875 230.496094 455.730469 219.695312 452.292969 C 211.746094 450.195312 203.058594 447.847656 197.410156 446.070312 C 184.777344 442.335938 172.414062 438.109375 159.976562 434.160156 Z M 267.597656 511.726562 C 252.429688 501.46875 237.261719 491.207031 222.125 480.886719 C 212.582031 492.609375 206.335938 505.445312 204.253906 520.429688 C 218.253906 530.199219 232.324219 539.847656 246.589844 549.285156 C 246.75 542.660156 249.433594 535.519531 252.070312 530.191406 C 255.730469 522.878906 261.070312 516.570312 267.597656 511.726562 Z M 217.808594 478.011719 C 207.351562 470.929688 196.929688 463.785156 186.507812 456.640625 C 176.351562 467.300781 170.195312 480.984375 169.277344 495.738281 C 179.625 503.160156 189.972656 510.582031 200.390625 517.882812 C 201.800781 503.246094 207.652344 488.675781 217.808594 478.011719 Z M 131.816406 468.46875 C 142.613281 476.378906 153.445312 484.230469 164.335938 492.113281 C 165.6875 477.441406 171.605469 464.1875 181.890625 453.4375 C 170.890625 445.894531 159.925781 438.285156 148.957031 430.679688 C 148.679688 430.605469 148.375 430.4375 148.226562 430.273438 C 142.253906 434.550781 137.636719 440.136719 134.746094 446.921875 C 131.648438 454.230469 132.203125 461.011719 131.816406 468.46875 Z M 219.769531 559.722656 C 178.964844 528.683594 137.839844 497.941406 97.601562 466.171875 C 92.296875 476.734375 87.054688 487.328125 81.507812 497.753906 C 121.808594 528.113281 161.847656 558.652344 201.585938 589.742188 C 201.78125 589.53125 201.945312 589.382812 202.203125 589.207031 C 211.859375 582.179688 218.316406 571.703125 219.769531 559.722656 Z M 225.84375 555.984375 C 274.855469 573.527344 323.03125 593.160156 371.0625 613.191406 C 358.660156 603.429688 346.191406 593.628906 332.855469 585.109375 C 332.796875 585.074219 332.796875 585.074219 332.734375 585.042969 C 305.210938 576.15625 277.617188 567.546875 250.082031 558.972656 C 249.960938 558.90625 249.835938 558.839844 249.679688 558.832031 C 249.308594 558.785156 248.847656 558.609375 248.453125 558.308594 C 207.585938 530.988281 168.3125 501.511719 129.171875 471.792969 C 128.894531 471.71875 128.683594 471.523438 128.410156 471.292969 C 128.253906 471.285156 128.195312 471.253906 128.039062 471.246094 C 119.4375 469.027344 110.9375 466.625 102.371094 464.347656 C 143.445312 494.179688 184.355469 524.164062 224.828125 554.785156 C 225.347656 555.148438 225.609375 555.535156 225.84375 555.984375 Z M 313.140625 632.574219 C 319.847656 635.179688 326.460938 637.8125 333.132812 640.476562 C 341.226562 631.945312 346.46875 621.351562 347.035156 609.679688 C 340.394531 606.953125 333.753906 604.226562 327.113281 601.5 C 326.402344 613.007812 321.949219 624.917969 313.140625 632.574219 Z M 279.351562 619.570312 C 289.046875 623.273438 298.742188 626.976562 308.402344 630.742188 C 316.257812 621.921875 322.289062 612.640625 323.4375 600.496094 C 323.441406 600.339844 323.484375 600.121094 323.550781 600 C 314.054688 596.085938 304.519531 592.230469 294.988281 588.378906 C 293.671875 600.113281 288.53125 611.960938 279.351562 619.570312 Z M 250.535156 608.84375 C 258.632812 611.824219 266.792969 614.835938 274.917969 617.910156 C 283.808594 609.097656 290.128906 599.582031 291.667969 587.015625 C 283.277344 583.554688 274.855469 580.15625 266.523438 576.730469 C 265.832031 589.210938 260.257812 600.980469 250.535156 608.84375 Z M 246.589844 607.453125 C 254.988281 598.375 261.6875 588.03125 262.769531 575.285156 C 262.769531 575.285156 262.769531 575.285156 262.804688 575.226562 C 250.230469 570.082031 237.628906 564.84375 225.0625 559.546875 C 223.886719 573.039062 217.453125 585.207031 206.589844 593.398438 C 219.96875 597.953125 233.28125 602.625 246.589844 607.453125 Z M 270.808594 622.578125 C 252.648438 615.691406 234.488281 608.808594 216.300781 601.828125 C 219.734375 604.132812 223.265625 606.414062 226.28125 609.046875 C 241.167969 613.476562 256.023438 617.964844 270.808594 622.578125 Z M 124.21875 627.734375 C 124.109375 627.355469 124.0625 627.011719 124.109375 626.636719 C 121.359375 624.390625 119.164062 621.574219 116.742188 619.03125 C 113.332031 615.378906 109.828125 611.757812 106.382812 608.167969 C 99.410156 600.859375 92.433594 593.550781 85.398438 586.210938 C 73.003906 573.257812 60.742188 560.214844 48.605469 547.085938 C 48.75 561.949219 40.417969 575.222656 26.488281 581.3125 C 54.167969 608.34375 80.867188 636.273438 108.1875 663.664062 C 119.535156 655.179688 128.554688 642.53125 124.21875 627.734375 Z M 185.503906 669.109375 C 188.296875 662.351562 189.535156 655.367188 189.28125 648.195312 C 169.585938 642.773438 150.300781 635.902344 130.925781 629.621094 C 134.273438 644.902344 124.292969 658.703125 112.542969 667.917969 C 133.742188 673.214844 154.910156 678.574219 176.042969 683.992188 C 177.152344 682.132812 178.816406 680.578125 180.179688 678.699219 C 182.308594 675.726562 184.046875 672.457031 185.503906 669.109375 Z M 262.671875 671.359375 C 256.140625 669.730469 249.613281 668.101562 243.046875 666.535156 C 236.484375 664.96875 229.917969 663.402344 223.355469 661.835938 C 216.910156 660.335938 210.410156 658.804688 203.898438 657.429688 C 201.699219 656.925781 199.140625 656.066406 197.484375 654.585938 C 196.160156 653.371094 195.253906 652.550781 193.570312 650.976562 C 193.765625 657.394531 192.769531 664.515625 190.539062 670.546875 C 188.980469 674.796875 186.03125 681.550781 182.042969 685.566406 C 205 691.441406 227.925781 697.375 250.816406 703.371094 C 258.164062 694.023438 262.625 683.398438 262.671875 671.359375 Z M 307.738281 702.929688 C 310.363281 697.914062 312.585938 689.878906 310.355469 684.246094 C 295.863281 680.113281 281.300781 676.105469 266.664062 672.375 C 266.757812 684.015625 263.125 695.742188 255.703125 704.644531 C 269.4375 708.273438 283.171875 711.902344 296.929688 715.628906 C 301.550781 712.199219 305.113281 707.945312 307.738281 702.929688 Z M 341.980469 671.917969 C 345.203125 666.113281 347.011719 659.6875 347.265625 653.039062 C 347.246094 652.785156 347.320312 652.507812 347.359375 652.289062 C 327.746094 646.4375 308.414062 639.21875 288.847656 632.992188 C 268.726562 626.617188 248.5625 620.457031 228.332031 614.421875 C 228.265625 614.542969 228.230469 614.605469 228.164062 614.726562 C 228.792969 626.261719 224.597656 637.277344 216.984375 645.515625 C 214.761719 648.515625 212.175781 651.15625 209.285156 653.628906 C 250.402344 662.789062 291.082031 673.464844 331.667969 684.730469 C 335.378906 680.636719 339.234375 676.863281 341.980469 671.917969 Z M 381.707031 623.972656 C 371.535156 619.6875 361.269531 615.425781 351.03125 611.261719 C 350.285156 623.550781 345.421875 633.316406 337.351562 642.097656 C 347.097656 645.992188 356.910156 649.921875 366.625 653.875 C 366.625 653.875 366.683594 653.910156 366.683594 653.910156 C 375.390625 647.15625 382.6875 635.304688 381.707031 623.972656 Z M 381.707031 623.972656 " fill-opacity="1" fill-rule="nonzero"/></g></g></g></g><path fill="#d05c28" d="M 458.871094 647.054688 C 454.6875 639.121094 450.445312 631.25 446.261719 623.375 C 444.910156 620.792969 447.617188 618.269531 450.382812 619.5625 C 458.316406 623.191406 465.820312 627.496094 473.078125 632.171875 C 479.226562 625.28125 485.007812 618.148438 490.484375 610.828125 C 492.882812 607.570312 498.601562 610.644531 496.203125 613.90625 C 495.464844 619.253906 493.925781 624.605469 492.699219 629.832031 C 491.652344 634.386719 490.542969 638.875 489.4375 643.425781 C 495.957031 648.222656 502.414062 653.203125 508.933594 658.125 C 510.59375 659.417969 509.734375 662.492188 507.582031 662.859375 C 500.015625 664.089844 492.511719 665.199219 484.949219 666.304688 C 483.472656 672.269531 482.117188 678.234375 481.320312 684.261719 C 481.074219 686.355469 477.875 687.769531 476.582031 685.433594 C 473.632812 679.957031 470.988281 674.300781 468.527344 668.582031 C 458.6875 669.933594 448.847656 671.226562 439.007812 672.453125 C 436.300781 672.824219 433.410156 669.75 435.992188 667.597656 C 443.988281 661.136719 451.613281 654.25 458.871094 647.054688 Z M 458.871094 647.054688 " fill-opacity="1" fill-rule="nonzero"/><g clip-path="url(#118b21dd18)"><g clip-path="url(#5c79ff883b)"><g clip-path="url(#925df318b2)"><path fill="#ef988f" d="M 1025.03125 540.820312 C 1032.316406 533.84375 1038.878906 527.457031 1045.5625 521.199219 C 1050.164062 516.886719 1054.820312 512.609375 1059.675781 508.589844 C 1062.015625 506.65625 1062.132812 504.867188 1061.039062 502.320312 C 1056.824219 492.488281 1052.640625 482.640625 1048.683594 472.703125 C 1047.980469 470.9375 1048.417969 468.71875 1048.332031 466.707031 C 1050.152344 466.804688 1052.136719 466.46875 1053.769531 467.074219 C 1064.722656 471.121094 1075.699219 475.140625 1086.445312 479.699219 C 1089.550781 481.015625 1091.210938 480.644531 1093.566406 478.597656 C 1103.4375 470.019531 1113.464844 461.613281 1123.496094 453.214844 C 1124.734375 452.179688 1126.238281 451.277344 1127.769531 450.796875 C 1134.355469 448.734375 1139.132812 452.964844 1137.417969 459.699219 C 1135.121094 468.714844 1132.507812 477.664062 1129.574219 486.492188 C 1126.390625 496.074219 1126.3125 495.667969 1135.679688 499.875 C 1145.105469 504.105469 1154.207031 509.0625 1163.414062 513.773438 C 1168.125 516.183594 1168.019531 520.367188 1167.210938 524.761719 C 1166.492188 528.6875 1163.429688 529.480469 1160.21875 529.964844 C 1146.960938 531.976562 1133.703125 534 1120.421875 535.863281 C 1117.46875 536.273438 1116.050781 537.289062 1115.550781 540.492188 C 1113.5625 553.289062 1111.265625 566.039062 1109.011719 578.792969 C 1108.347656 582.566406 1106.609375 585.867188 1102.613281 586.75 C 1098.265625 587.714844 1095.367188 585.210938 1093.757812 581.429688 C 1088.972656 570.195312 1084.171875 558.960938 1079.757812 547.574219 C 1078.316406 543.847656 1076.589844 543.234375 1072.75 543.675781 C 1061.539062 544.957031 1050.25 545.578125 1038.992188 546.433594 C 1035.847656 546.671875 1032.691406 546.988281 1029.546875 546.949219 C 1028.058594 546.929688 1025.765625 546.5625 1025.285156 545.613281 C 1024.542969 544.160156 1025.046875 542.066406 1025.03125 540.820312 Z M 1044.089844 537.386719 C 1043.96875 537.441406 1043.847656 537.496094 1043.726562 537.550781 C 1043.84375 537.476562 1043.960938 537.402344 1044.078125 537.332031 C 1046.285156 537.222656 1048.515625 537.300781 1050.6875 536.972656 C 1058.226562 535.820312 1065.75 534.523438 1073.855469 533.1875 C 1071.628906 527.765625 1069.714844 523.089844 1067.394531 517.4375 C 1059.292969 524.371094 1051.691406 530.878906 1044.089844 537.386719 Z M 1085.023438 528.417969 C 1091.832031 527.785156 1097.566406 527.367188 1103.257812 526.625 C 1104.226562 526.496094 1105.535156 525.132812 1105.8125 524.105469 C 1107.597656 517.445312 1109.144531 510.722656 1110.785156 503.941406 C 1105.714844 501.503906 1100.792969 498.996094 1095.734375 496.816406 C 1094.660156 496.351562 1092.695312 496.585938 1091.792969 497.3125 C 1086.65625 501.441406 1081.71875 505.820312 1076.53125 510.273438 C 1079.691406 517.023438 1082.804688 523.675781 1085.023438 528.417969 Z M 1142.855469 519.722656 C 1142.953125 519.300781 1143.054688 518.882812 1143.152344 518.464844 C 1136.6875 515.480469 1130.222656 512.496094 1123.136719 509.226562 C 1121.910156 514.175781 1120.796875 518.644531 1119.613281 523.414062 C 1127.765625 522.121094 1135.308594 520.921875 1142.855469 519.722656 Z M 1070.980469 499.015625 C 1074.515625 495.785156 1077.484375 493.070312 1081.070312 489.792969 C 1073.714844 485.90625 1067.496094 482.621094 1060.410156 478.875 C 1064.085938 485.882812 1067.292969 491.988281 1070.980469 499.015625 Z M 1114.394531 491.273438 C 1116.203125 484.910156 1117.925781 478.835938 1119.652344 472.761719 C 1119.386719 472.597656 1119.121094 472.433594 1118.855469 472.269531 C 1113.820312 476.933594 1108.78125 481.601562 1103.199219 486.773438 C 1107.476562 488.492188 1110.777344 489.820312 1114.394531 491.273438 Z M 1101.917969 541.277344 C 1098.457031 541.289062 1094.863281 541.296875 1090.957031 541.308594 C 1093.527344 547.101562 1095.679688 551.957031 1097.835938 556.816406 C 1098.144531 556.769531 1098.457031 556.722656 1098.765625 556.679688 C 1099.921875 551.035156 1101.078125 545.386719 1101.917969 541.277344 Z M 1101.917969 541.277344 " fill-opacity="1" fill-rule="nonzero"/></g></g></g><g clip-path="url(#961e6d2210)"><g clip-path="url(#52e7dd02c7)"><g clip-path="url(#8115d50188)"><path fill="#e88177" d="M 1287.34375 289.6875 C 1294.957031 272.59375 1289.675781 255.175781 1275.460938 243.746094 C 1256.457031 228.285156 1233.046875 226.019531 1210.394531 219.757812 C 1185.785156 212.589844 1190.785156 196.132812 1204.328125 183.480469 C 1223.144531 189.636719 1245.117188 187.402344 1259.066406 175 C 1261.039062 173.136719 1261.875 169.46875 1260.339844 167.417969 C 1246.820312 148.886719 1219.035156 154.269531 1199.515625 169.414062 C 1190.078125 164.785156 1182.695312 157.230469 1180.632812 147.34375 C 1173.785156 119.222656 1207.015625 117.710938 1222.035156 104.007812 C 1239.363281 86.972656 1231.789062 57.296875 1210.539062 48.273438 C 1207.039062 46.699219 1205.292969 52.320312 1208.792969 53.894531 C 1224.664062 60.765625 1230.972656 83.820312 1218.082031 96.3125 C 1209.132812 105.074219 1194.921875 106.453125 1184.761719 113.085938 C 1171.648438 121.820312 1166.90625 136.484375 1170.894531 151.445312 C 1173.929688 162.484375 1181.222656 171.097656 1190.574219 176.785156 C 1181.539062 186.609375 1176.484375 198.574219 1179.023438 210.425781 C 1184.503906 235.761719 1214.628906 234.3125 1234.429688 240.230469 C 1249.417969 244.890625 1271.578125 251.964844 1275.144531 269.453125 C 1279.824219 291.519531 1255.59375 302.964844 1238.257812 308.570312 C 1229.585938 311.375 1232.929688 325.109375 1241.601562 322.304688 C 1260.328125 316.703125 1278.742188 308.410156 1287.34375 289.6875 Z M 1243.996094 170.011719 C 1236.378906 174.289062 1226.660156 175.621094 1217.363281 174.417969 C 1226.535156 169.414062 1236.75 167.273438 1243.996094 170.011719 Z M 1243.996094 170.011719 " fill-opacity="1" fill-rule="nonzero"/></g></g></g><path fill="#037682" d="M 57.757812 77.273438 C 53.574219 69.339844 49.332031 61.464844 45.148438 53.59375 C 43.796875 51.011719 46.503906 48.488281 49.269531 49.78125 C 57.203125 53.410156 64.707031 57.714844 71.964844 62.390625 C 78.113281 55.5 83.894531 48.367188 89.371094 41.046875 C 91.769531 37.789062 97.488281 40.863281 95.089844 44.121094 C 94.351562 49.472656 92.8125 54.824219 91.582031 60.050781 C 90.539062 64.601562 89.429688 69.09375 88.324219 73.644531 C 94.84375 78.441406 101.300781 83.421875 107.820312 88.34375 C 109.480469 89.632812 108.621094 92.710938 106.46875 93.078125 C 98.902344 94.308594 91.398438 95.414062 83.835938 96.523438 C 82.359375 102.488281 81.003906 108.453125 80.207031 114.480469 C 79.960938 116.574219 76.761719 117.988281 75.46875 115.648438 C 72.519531 110.175781 69.875 104.519531 67.414062 98.796875 C 57.574219 100.152344 47.730469 101.441406 37.890625 102.671875 C 35.1875 103.042969 32.296875 99.964844 34.878906 97.8125 C 42.875 91.355469 50.5 84.46875 57.757812 77.273438 Z M 57.757812 77.273438 " fill-opacity="1" fill-rule="nonzero"/></svg>