<svg width="127" height="38" viewBox="0 0 127 38" fill="none" xmlns="http://www.w3.org/2000/svg">
<g filter="url(#filter0_i_36_526)">
<path d="M55.536 17.888C57.6053 17.888 59.248 18.5813 60.464 19.968C61.68 21.3333 62.288 23.1893 62.288 25.536V36H56.016V26.368C56.016 25.344 55.7493 24.544 55.216 23.968C54.6827 23.3707 53.968 23.072 53.072 23.072C52.1333 23.072 51.3973 23.3707 50.864 23.968C50.3307 24.544 50.064 25.344 50.064 26.368V36H43.792V18.048H50.064V20.608C50.6187 19.7973 51.3653 19.1467 52.304 18.656C53.2427 18.144 54.32 17.888 55.536 17.888ZM73.7615 36.224C71.9695 36.224 70.3588 35.8507 68.9295 35.104C67.5215 34.3573 66.4122 33.2907 65.6015 31.904C64.7908 30.5173 64.3855 28.8853 64.3855 27.008C64.3855 25.152 64.7908 23.5307 65.6015 22.144C66.4335 20.7573 67.5535 19.6907 68.9615 18.944C70.3908 18.1973 72.0015 17.824 73.7935 17.824C75.5855 17.824 77.1855 18.1973 78.5935 18.944C80.0228 19.6907 81.1428 20.7573 81.9535 22.144C82.7855 23.5307 83.2015 25.152 83.2015 27.008C83.2015 28.864 82.7855 30.496 81.9535 31.904C81.1428 33.2907 80.0228 34.3573 78.5935 35.104C77.1642 35.8507 75.5535 36.224 73.7615 36.224ZM73.7615 30.784C74.6362 30.784 75.3615 30.464 75.9375 29.824C76.5348 29.1627 76.8335 28.224 76.8335 27.008C76.8335 25.792 76.5348 24.864 75.9375 24.224C75.3615 23.584 74.6468 23.264 73.7935 23.264C72.9402 23.264 72.2255 23.584 71.6495 24.224C71.0735 24.864 70.7855 25.792 70.7855 27.008C70.7855 28.2453 71.0628 29.184 71.6175 29.824C72.1722 30.464 72.8868 30.784 73.7615 30.784ZM93.7853 36.224C91.9933 36.224 90.3826 35.8507 88.9533 35.104C87.5453 34.3573 86.4359 33.2907 85.6253 31.904C84.8146 30.5173 84.4093 28.8853 84.4093 27.008C84.4093 25.152 84.8146 23.5307 85.6253 22.144C86.4573 20.7573 87.5773 19.6907 88.9853 18.944C90.4146 18.1973 92.0253 17.824 93.8173 17.824C95.6093 17.824 97.2093 18.1973 98.6173 18.944C100.047 19.6907 101.167 20.7573 101.977 22.144C102.809 23.5307 103.225 25.152 103.225 27.008C103.225 28.864 102.809 30.496 101.977 31.904C101.167 33.2907 100.047 34.3573 98.6173 35.104C97.1879 35.8507 95.5773 36.224 93.7853 36.224ZM93.7853 30.784C94.6599 30.784 95.3853 30.464 95.9613 29.824C96.5586 29.1627 96.8573 28.224 96.8573 27.008C96.8573 25.792 96.5586 24.864 95.9613 24.224C95.3853 23.584 94.6706 23.264 93.8173 23.264C92.9639 23.264 92.2493 23.584 91.6733 24.224C91.0973 24.864 90.8093 25.792 90.8093 27.008C90.8093 28.2453 91.0866 29.184 91.6413 29.824C92.1959 30.464 92.9106 30.784 93.7853 30.784ZM116.049 30.656V36H113.329C108.742 36 106.449 33.728 106.449 29.184V23.264H104.241V18.048H106.449V13.696H112.753V18.048H116.017V23.264H112.753V29.28C112.753 29.7707 112.86 30.1227 113.073 30.336C113.308 30.5493 113.692 30.656 114.225 30.656H116.049ZM121.646 36.256C120.536 36.256 119.64 35.9573 118.958 35.36C118.296 34.7413 117.966 33.9627 117.966 33.024C117.966 32.0853 118.296 31.3067 118.958 30.688C119.64 30.0693 120.536 29.76 121.646 29.76C122.734 29.76 123.608 30.0693 124.27 30.688C124.952 31.3067 125.294 32.0853 125.294 33.024C125.294 33.9413 124.952 34.7093 124.27 35.328C123.608 35.9467 122.734 36.256 121.646 36.256Z" fill="#037682"/>
</g>
<g filter="url(#filter1_i_36_526)">
<path d="M24.5012 36C25.1542 35.2701 25.5832 34.3676 25.737 33.4004C25.8908 32.4331 25.7628 31.4421 25.3683 30.5457C24.9739 29.6492 24.3297 28.8853 23.5127 28.3452C22.6957 27.8051 21.7405 27.5117 20.7612 27.5" stroke="#037682" stroke-width="4" stroke-linecap="round" stroke-linejoin="round"/>
<path d="M25.7998 32.6C25.7998 31.2474 26.3371 29.9502 27.2936 28.9938C28.25 28.0373 29.5472 27.5 30.8998 27.5H32.5998C33.5015 27.5 34.3663 27.1418 35.004 26.5042C35.6416 25.8666 35.9998 25.0018 35.9998 24.1V20.7C35.9998 18.8966 35.2834 17.1669 34.0081 15.8917C32.7329 14.6165 31.0033 13.9 29.1998 13.9V5.40002M29.1998 20.7H29.2168" stroke="#037682" stroke-width="4" stroke-linecap="round" stroke-linejoin="round"/>
<path d="M29.2 8.8C27.3965 8.8 25.6669 9.51643 24.3917 10.7917C23.1164 12.0669 22.4 13.7965 22.4 15.6C19.2439 15.6 16.2171 16.8537 13.9854 19.0854C11.7537 21.3171 10.5 24.3439 10.5 27.5C10.5 19 17.3 19 17.3 9.65C17.3 8.64539 17.1021 7.65061 16.7177 6.72247C16.3332 5.79433 15.7697 4.951 15.0594 4.24063C14.349 3.53027 13.5057 2.96677 12.5775 2.58232C11.6494 2.19787 10.6546 2 9.65 2C8.64539 2 7.65061 2.19787 6.72247 2.58232C5.79433 2.96677 4.951 3.53027 4.24063 4.24063C3.53026 4.951 2.96677 5.79433 2.58232 6.72247C2.19787 7.65061 2 8.64539 2 9.65C2 10.7772 2.44777 11.8582 3.2448 12.6552C4.04183 13.4522 5.12283 13.9 6.25 13.9C7.37717 13.9 8.45817 13.4522 9.2552 12.6552C10.0522 11.8582 10.5 10.7772 10.5 9.65C10.5 15.6 3.7 17.3 3.7 27.5C3.7 32.26 7.44 36 12.2 36H29.2" stroke="#037682" stroke-width="4" stroke-linecap="round" stroke-linejoin="round"/>
</g>
<defs>
<filter id="filter0_i_36_526" x="43.792" y="13.696" width="86.502" height="27.5599" filterUnits="userSpaceOnUse" color-interpolation-filters="sRGB">
<feFlood flood-opacity="0" result="BackgroundImageFix"/>
<feBlend mode="normal" in="SourceGraphic" in2="BackgroundImageFix" result="shape"/>
<feColorMatrix in="SourceAlpha" type="matrix" values="0 0 0 0 0 0 0 0 0 0 0 0 0 0 0 0 0 0 127 0" result="hardAlpha"/>
<feOffset dx="5" dy="5"/>
<feGaussianBlur stdDeviation="5"/>
<feComposite in2="hardAlpha" operator="arithmetic" k2="-1" k3="1"/>
<feColorMatrix type="matrix" values="0 0 0 0 1 0 0 0 0 0.823529 0 0 0 0 0.368627 0 0 0 1 0"/>
<feBlend mode="normal" in2="shape" result="effect1_innerShadow_36_526"/>
</filter>
<filter id="filter1_i_36_526" x="0" y="0" width="43" height="43" filterUnits="userSpaceOnUse" color-interpolation-filters="sRGB">
<feFlood flood-opacity="0" result="BackgroundImageFix"/>
<feBlend mode="normal" in="SourceGraphic" in2="BackgroundImageFix" result="shape"/>
<feColorMatrix in="SourceAlpha" type="matrix" values="0 0 0 0 0 0 0 0 0 0 0 0 0 0 0 0 0 0 127 0" result="hardAlpha"/>
<feOffset dx="5" dy="5"/>
<feGaussianBlur stdDeviation="5"/>
<feComposite in2="hardAlpha" operator="arithmetic" k2="-1" k3="1"/>
<feColorMatrix type="matrix" values="0 0 0 0 1 0 0 0 0 0.823529 0 0 0 0 0.368627 0 0 0 1 0"/>
<feBlend mode="normal" in2="shape" result="effect1_innerShadow_36_526"/>
</filter>
</defs>
</svg>
